<mxfile host="app.diagrams.net" modified="2024-06-14T14:23:23.466Z" agent="Mozilla/5.0 (Windows NT 10.0; Win64; x64) AppleWebKit/537.36 (KHTML, like Gecko) Chrome/126.0.0.0 Safari/537.36" etag="6vYT8a802r40KoVlsyP-" version="24.5.4" type="device">
  <diagram id="C5RBs43oDa-KdzZeNtuy" name="Page-1">
    <mxGraphModel dx="1481" dy="771" grid="1" gridSize="10" guides="1" tooltips="1" connect="1" arrows="1" fold="1" page="1" pageScale="1" pageWidth="827" pageHeight="1169" math="0" shadow="0">
      <root>
        <mxCell id="WIyWlLk6GJQsqaUBKTNV-0" />
        <mxCell id="WIyWlLk6GJQsqaUBKTNV-1" parent="WIyWlLk6GJQsqaUBKTNV-0" />
        <mxCell id="ky_ntpjUkyK2916NWXyD-47" value="Weather station 1 (roof)" style="swimlane;fontStyle=1;align=center;verticalAlign=top;childLayout=stackLayout;horizontal=1;startSize=26;horizontalStack=0;resizeParent=1;resizeLast=0;collapsible=1;marginBottom=0;rounded=0;shadow=0;strokeWidth=1;" vertex="1" parent="WIyWlLk6GJQsqaUBKTNV-1">
          <mxGeometry x="85" y="70" width="195" height="130" as="geometry">
            <mxRectangle x="550" y="140" width="160" height="26" as="alternateBounds" />
          </mxGeometry>
        </mxCell>
        <mxCell id="ky_ntpjUkyK2916NWXyD-48" value="- Wind vane (direction)" style="text;align=left;verticalAlign=top;spacingLeft=4;spacingRight=4;overflow=hidden;rotatable=0;points=[[0,0.5],[1,0.5]];portConstraint=eastwest;" vertex="1" parent="ky_ntpjUkyK2916NWXyD-47">
          <mxGeometry y="26" width="195" height="26" as="geometry" />
        </mxCell>
        <mxCell id="ky_ntpjUkyK2916NWXyD-85" style="edgeStyle=orthogonalEdgeStyle;rounded=0;orthogonalLoop=1;jettySize=auto;html=1;exitX=1;exitY=0.5;exitDx=0;exitDy=0;" edge="1" parent="ky_ntpjUkyK2916NWXyD-47">
          <mxGeometry relative="1" as="geometry">
            <mxPoint x="285" y="33" as="targetPoint" />
            <mxPoint x="195" as="sourcePoint" />
            <Array as="points">
              <mxPoint x="195" y="120" />
              <mxPoint x="225" y="120" />
              <mxPoint x="225" y="33" />
            </Array>
          </mxGeometry>
        </mxCell>
        <mxCell id="ky_ntpjUkyK2916NWXyD-49" value="- Anemometer (wind speed)" style="text;align=left;verticalAlign=top;spacingLeft=4;spacingRight=4;overflow=hidden;rotatable=0;points=[[0,0.5],[1,0.5]];portConstraint=eastwest;rounded=0;shadow=0;html=0;" vertex="1" parent="ky_ntpjUkyK2916NWXyD-47">
          <mxGeometry y="52" width="195" height="26" as="geometry" />
        </mxCell>
        <mxCell id="ky_ntpjUkyK2916NWXyD-50" value="- Light + UV sensor" style="text;align=left;verticalAlign=top;spacingLeft=4;spacingRight=4;overflow=hidden;rotatable=0;points=[[0,0.5],[1,0.5]];portConstraint=eastwest;rounded=0;shadow=0;html=0;" vertex="1" parent="ky_ntpjUkyK2916NWXyD-47">
          <mxGeometry y="78" width="195" height="26" as="geometry" />
        </mxCell>
        <mxCell id="ky_ntpjUkyK2916NWXyD-72" value="" style="endArrow=none;html=1;rounded=0;exitX=0;exitY=0.75;exitDx=0;exitDy=0;entryX=0.995;entryY=0.038;entryDx=0;entryDy=0;entryPerimeter=0;" edge="1" parent="ky_ntpjUkyK2916NWXyD-47" target="ky_ntpjUkyK2916NWXyD-51">
          <mxGeometry width="50" height="50" relative="1" as="geometry">
            <mxPoint x="1.12" y="105.1" as="sourcePoint" />
            <mxPoint x="160" y="103.99600000000001" as="targetPoint" />
          </mxGeometry>
        </mxCell>
        <mxCell id="ky_ntpjUkyK2916NWXyD-51" value="- Microcontroller (esp32) + wifi" style="text;align=left;verticalAlign=top;spacingLeft=4;spacingRight=4;overflow=hidden;rotatable=0;points=[[0,0.5],[1,0.5]];portConstraint=eastwest;rounded=0;shadow=0;html=0;" vertex="1" parent="ky_ntpjUkyK2916NWXyD-47">
          <mxGeometry y="104" width="195" height="26" as="geometry" />
        </mxCell>
        <mxCell id="ky_ntpjUkyK2916NWXyD-60" value="Weather station 2 (ground)" style="swimlane;fontStyle=1;align=center;verticalAlign=top;childLayout=stackLayout;horizontal=1;startSize=26;horizontalStack=0;resizeParent=1;resizeLast=0;collapsible=1;marginBottom=0;rounded=0;shadow=0;strokeWidth=1;" vertex="1" parent="WIyWlLk6GJQsqaUBKTNV-1">
          <mxGeometry x="85" y="230" width="195" height="160" as="geometry">
            <mxRectangle x="550" y="140" width="160" height="26" as="alternateBounds" />
          </mxGeometry>
        </mxCell>
        <mxCell id="ky_ntpjUkyK2916NWXyD-61" value="- Temperature, Humidity, Pressure" style="text;align=left;verticalAlign=top;spacingLeft=4;spacingRight=4;overflow=hidden;rotatable=0;points=[[0,0.5],[1,0.5]];portConstraint=eastwest;" vertex="1" parent="ky_ntpjUkyK2916NWXyD-60">
          <mxGeometry y="26" width="195" height="26" as="geometry" />
        </mxCell>
        <mxCell id="ky_ntpjUkyK2916NWXyD-62" value="- Rain gauge" style="text;align=left;verticalAlign=top;spacingLeft=4;spacingRight=4;overflow=hidden;rotatable=0;points=[[0,0.5],[1,0.5]];portConstraint=eastwest;rounded=0;shadow=0;html=0;" vertex="1" parent="ky_ntpjUkyK2916NWXyD-60">
          <mxGeometry y="52" width="195" height="26" as="geometry" />
        </mxCell>
        <mxCell id="ky_ntpjUkyK2916NWXyD-63" value="- Lightning sensor" style="text;align=left;verticalAlign=top;spacingLeft=4;spacingRight=4;overflow=hidden;rotatable=0;points=[[0,0.5],[1,0.5]];portConstraint=eastwest;rounded=0;shadow=0;html=0;" vertex="1" parent="ky_ntpjUkyK2916NWXyD-60">
          <mxGeometry y="78" width="195" height="26" as="geometry" />
        </mxCell>
        <mxCell id="ky_ntpjUkyK2916NWXyD-79" value="" style="endArrow=none;html=1;rounded=0;entryX=1.001;entryY=0.999;entryDx=0;entryDy=0;entryPerimeter=0;" edge="1" parent="ky_ntpjUkyK2916NWXyD-60" target="ky_ntpjUkyK2916NWXyD-64">
          <mxGeometry width="50" height="50" relative="1" as="geometry">
            <mxPoint y="130" as="sourcePoint" />
            <mxPoint x="50" y="80" as="targetPoint" />
          </mxGeometry>
        </mxCell>
        <mxCell id="ky_ntpjUkyK2916NWXyD-64" value="- Soil temperature, soil moisture" style="text;align=left;verticalAlign=top;spacingLeft=4;spacingRight=4;overflow=hidden;rotatable=0;points=[[0,0.5],[1,0.5]];portConstraint=eastwest;rounded=0;shadow=0;html=0;" vertex="1" parent="ky_ntpjUkyK2916NWXyD-60">
          <mxGeometry y="104" width="195" height="26" as="geometry" />
        </mxCell>
        <mxCell id="ky_ntpjUkyK2916NWXyD-65" value="- Microcontroller (esp32) + wifi" style="text;align=left;verticalAlign=top;spacingLeft=4;spacingRight=4;overflow=hidden;rotatable=0;points=[[0,0.5],[1,0.5]];portConstraint=eastwest;rounded=0;shadow=0;html=0;" vertex="1" parent="ky_ntpjUkyK2916NWXyD-60">
          <mxGeometry y="130" width="195" height="26" as="geometry" />
        </mxCell>
        <mxCell id="ky_ntpjUkyK2916NWXyD-84" style="edgeStyle=orthogonalEdgeStyle;rounded=0;orthogonalLoop=1;jettySize=auto;html=1;exitX=1;exitY=0.5;exitDx=0;exitDy=0;" edge="1" parent="ky_ntpjUkyK2916NWXyD-60">
          <mxGeometry relative="1" as="geometry">
            <mxPoint x="285" y="-107" as="targetPoint" />
            <mxPoint x="195" y="26" as="sourcePoint" />
            <Array as="points">
              <mxPoint x="195" y="140" />
              <mxPoint x="235" y="140" />
              <mxPoint x="235" y="-107" />
            </Array>
          </mxGeometry>
        </mxCell>
        <mxCell id="ky_ntpjUkyK2916NWXyD-81" value="WiFi" style="ellipse;shape=cloud;whiteSpace=wrap;html=1;" vertex="1" parent="WIyWlLk6GJQsqaUBKTNV-1">
          <mxGeometry x="370" y="73.00034482758628" width="120" height="80" as="geometry" />
        </mxCell>
        <mxCell id="ky_ntpjUkyK2916NWXyD-137" style="edgeStyle=orthogonalEdgeStyle;rounded=0;orthogonalLoop=1;jettySize=auto;html=1;entryX=0.5;entryY=0;entryDx=0;entryDy=0;" edge="1" parent="WIyWlLk6GJQsqaUBKTNV-1" source="ky_ntpjUkyK2916NWXyD-86" target="ky_ntpjUkyK2916NWXyD-132">
          <mxGeometry relative="1" as="geometry">
            <Array as="points">
              <mxPoint x="650" y="209" />
              <mxPoint x="570" y="209" />
            </Array>
          </mxGeometry>
        </mxCell>
        <mxCell id="ky_ntpjUkyK2916NWXyD-139" style="edgeStyle=orthogonalEdgeStyle;rounded=0;orthogonalLoop=1;jettySize=auto;html=1;entryX=0.5;entryY=0;entryDx=0;entryDy=0;" edge="1" parent="WIyWlLk6GJQsqaUBKTNV-1" source="ky_ntpjUkyK2916NWXyD-86" target="ky_ntpjUkyK2916NWXyD-123">
          <mxGeometry relative="1" as="geometry">
            <Array as="points">
              <mxPoint x="650" y="209" />
              <mxPoint x="760" y="209" />
            </Array>
          </mxGeometry>
        </mxCell>
        <mxCell id="ky_ntpjUkyK2916NWXyD-86" value="&lt;b&gt;Local server (raspberry pi)&lt;/b&gt;" style="swimlane;fontStyle=0;childLayout=stackLayout;horizontal=1;startSize=30;horizontalStack=0;resizeParent=1;resizeParentMax=0;resizeLast=0;collapsible=1;marginBottom=0;whiteSpace=wrap;html=1;" vertex="1" parent="WIyWlLk6GJQsqaUBKTNV-1">
          <mxGeometry x="530" y="70" width="270" height="90" as="geometry" />
        </mxCell>
        <mxCell id="ky_ntpjUkyK2916NWXyD-87" value="- InfluxDB storage (timeseries database)" style="text;strokeColor=none;fillColor=none;align=left;verticalAlign=middle;spacingLeft=4;spacingRight=4;overflow=hidden;points=[[0,0.5],[1,0.5]];portConstraint=eastwest;rotatable=0;whiteSpace=wrap;html=1;" vertex="1" parent="ky_ntpjUkyK2916NWXyD-86">
          <mxGeometry y="30" width="270" height="30" as="geometry" />
        </mxCell>
        <mxCell id="ky_ntpjUkyK2916NWXyD-88" value="- Grafana visualization (graphs&lt;span style=&quot;background-color: initial;&quot;&gt;+dashboard)&lt;/span&gt;" style="text;strokeColor=none;fillColor=none;align=left;verticalAlign=middle;spacingLeft=4;spacingRight=4;overflow=hidden;points=[[0,0.5],[1,0.5]];portConstraint=eastwest;rotatable=0;whiteSpace=wrap;html=1;" vertex="1" parent="ky_ntpjUkyK2916NWXyD-86">
          <mxGeometry y="60" width="270" height="30" as="geometry" />
        </mxCell>
        <mxCell id="ky_ntpjUkyK2916NWXyD-91" value="&lt;u&gt;Outdoor&lt;/u&gt;" style="text;strokeColor=none;fillColor=none;html=1;fontSize=24;fontStyle=1;verticalAlign=middle;align=center;" vertex="1" parent="WIyWlLk6GJQsqaUBKTNV-1">
          <mxGeometry x="132.5" y="20" width="100" height="40" as="geometry" />
        </mxCell>
        <mxCell id="ky_ntpjUkyK2916NWXyD-92" value="&lt;u&gt;Indoor&lt;/u&gt;" style="text;strokeColor=none;fillColor=none;html=1;fontSize=24;fontStyle=1;verticalAlign=middle;align=center;" vertex="1" parent="WIyWlLk6GJQsqaUBKTNV-1">
          <mxGeometry x="615" y="20" width="100" height="40" as="geometry" />
        </mxCell>
        <mxCell id="ky_ntpjUkyK2916NWXyD-123" value="&lt;b&gt;Indoor display&lt;/b&gt;" style="swimlane;fontStyle=0;childLayout=stackLayout;horizontal=1;startSize=30;horizontalStack=0;resizeParent=1;resizeParentMax=0;resizeLast=0;collapsible=1;marginBottom=0;whiteSpace=wrap;html=1;" vertex="1" parent="WIyWlLk6GJQsqaUBKTNV-1">
          <mxGeometry x="670" y="257" width="180" height="120" as="geometry" />
        </mxCell>
        <mxCell id="ky_ntpjUkyK2916NWXyD-127" value="- Type: LCD or E&lt;span style=&quot;background-color: initial;&quot;&gt;-ink display&lt;/span&gt;" style="text;strokeColor=none;fillColor=none;align=left;verticalAlign=middle;spacingLeft=4;spacingRight=4;overflow=hidden;points=[[0,0.5],[1,0.5]];portConstraint=eastwest;rotatable=0;whiteSpace=wrap;html=1;" vertex="1" parent="ky_ntpjUkyK2916NWXyD-123">
          <mxGeometry y="30" width="180" height="30" as="geometry" />
        </mxCell>
        <mxCell id="ky_ntpjUkyK2916NWXyD-124" value="- Main weather stats" style="text;strokeColor=none;fillColor=none;align=left;verticalAlign=middle;spacingLeft=4;spacingRight=4;overflow=hidden;points=[[0,0.5],[1,0.5]];portConstraint=eastwest;rotatable=0;whiteSpace=wrap;html=1;" vertex="1" parent="ky_ntpjUkyK2916NWXyD-123">
          <mxGeometry y="60" width="180" height="30" as="geometry" />
        </mxCell>
        <mxCell id="ky_ntpjUkyK2916NWXyD-125" value="- Indoor temp, humidity, etc" style="text;strokeColor=none;fillColor=none;align=left;verticalAlign=middle;spacingLeft=4;spacingRight=4;overflow=hidden;points=[[0,0.5],[1,0.5]];portConstraint=eastwest;rotatable=0;whiteSpace=wrap;html=1;" vertex="1" parent="ky_ntpjUkyK2916NWXyD-123">
          <mxGeometry y="90" width="180" height="30" as="geometry" />
        </mxCell>
        <mxCell id="ky_ntpjUkyK2916NWXyD-128" value="" style="endArrow=classic;html=1;rounded=0;exitX=0.875;exitY=0.5;exitDx=0;exitDy=0;exitPerimeter=0;" edge="1" parent="WIyWlLk6GJQsqaUBKTNV-1" source="ky_ntpjUkyK2916NWXyD-81">
          <mxGeometry width="50" height="50" relative="1" as="geometry">
            <mxPoint x="560" y="183" as="sourcePoint" />
            <mxPoint x="520" y="90" as="targetPoint" />
            <Array as="points">
              <mxPoint x="500" y="113" />
              <mxPoint x="500" y="90" />
            </Array>
          </mxGeometry>
        </mxCell>
        <mxCell id="ky_ntpjUkyK2916NWXyD-132" value="&lt;b&gt;Web browser&lt;/b&gt;" style="swimlane;fontStyle=0;childLayout=stackLayout;horizontal=1;startSize=30;horizontalStack=0;resizeParent=1;resizeParentMax=0;resizeLast=0;collapsible=1;marginBottom=0;whiteSpace=wrap;html=1;" vertex="1" parent="WIyWlLk6GJQsqaUBKTNV-1">
          <mxGeometry x="510" y="257" width="120" height="120" as="geometry" />
        </mxCell>
        <mxCell id="ky_ntpjUkyK2916NWXyD-133" value="- PC" style="text;strokeColor=none;fillColor=none;align=left;verticalAlign=middle;spacingLeft=4;spacingRight=4;overflow=hidden;points=[[0,0.5],[1,0.5]];portConstraint=eastwest;rotatable=0;whiteSpace=wrap;html=1;" vertex="1" parent="ky_ntpjUkyK2916NWXyD-132">
          <mxGeometry y="30" width="120" height="30" as="geometry" />
        </mxCell>
        <mxCell id="ky_ntpjUkyK2916NWXyD-134" value="- Mobile" style="text;strokeColor=none;fillColor=none;align=left;verticalAlign=middle;spacingLeft=4;spacingRight=4;overflow=hidden;points=[[0,0.5],[1,0.5]];portConstraint=eastwest;rotatable=0;whiteSpace=wrap;html=1;" vertex="1" parent="ky_ntpjUkyK2916NWXyD-132">
          <mxGeometry y="60" width="120" height="30" as="geometry" />
        </mxCell>
        <mxCell id="ky_ntpjUkyK2916NWXyD-135" value="- Smart TV" style="text;strokeColor=none;fillColor=none;align=left;verticalAlign=middle;spacingLeft=4;spacingRight=4;overflow=hidden;points=[[0,0.5],[1,0.5]];portConstraint=eastwest;rotatable=0;whiteSpace=wrap;html=1;" vertex="1" parent="ky_ntpjUkyK2916NWXyD-132">
          <mxGeometry y="90" width="120" height="30" as="geometry" />
        </mxCell>
      </root>
    </mxGraphModel>
  </diagram>
</mxfile>
